<?xml version='1.0' encoding='utf-8'?>
<svg xmlns="http://www.w3.org/2000/svg" width="1920" height="1080" viewBox="0 0 1920 1080" data-theme="dark" data-semantic-intent="sequence" data-relation-type="sequence" data-site-visual-identity="signal-cobalt">
  <style>
        @font-face {
            font-family: 'Inter';
            src: url('assets/fonts/Inter-Regular.ttf') format('truetype');
            font-weight: 400;
            font-style: normal;
            font-display: swap;
        }
        @font-face {
            font-family: 'Inter';
            src: url('assets/fonts/Inter-Bold.ttf') format('truetype');
            font-weight: 600;
            font-style: normal;
            font-display: swap;
        }
        @font-face {
            font-family: 'Inter';
            src: url('assets/fonts/Inter-Bold.ttf') format('truetype');
            font-weight: 800;
            font-style: normal;
            font-display: swap;
        }
        
:root {
    --background: #0f172a;
    --panel: #1e293b;
    --primary-text: #f1f5f9;
    --muted-text: #94a3b8;
    --inverse-text: #0f172a;
    --border: #334155;
    --shadow-color: #000000;
    --icon-pad-bg: #1e293b;
    --art-glow: #7dd3fc;
    --art-glow-opacity: 0.18;
    --art-sheen: #ffffff;
    --art-sheen-opacity: 0.18;
    --art-shadow: #000000;
    --art-shadow-opacity: 0.28;
    --art-muted-line: #64748b;
    --art-panel-tint: #1e293b;
    --semantic-risk: #f87171;
    --semantic-warning: #fb923c;
    --semantic-uncertain: #fbbf24;
    --semantic-evidence: #60a5fa;
    --semantic-claim: #c084fc;
    --semantic-positive: #4ade80;
    --semantic-outcome: #22d3ee;
    --font-family: 'Inter', 'Segoe UI', 'Kalam', Roboto, Helvetica, Arial, sans-serif;
    --radius-xl: 16px;
    --font-family-headline: 'Segoe UI Variable Display', 'Aptos Display', 'Inter', 'Segoe UI', Helvetica, Arial, sans-serif;
    --font-family-body: 'Segoe UI Variable Text', 'Aptos', 'Inter', 'Segoe UI', Helvetica, Arial, sans-serif;
    --font-heading: var(--font-family-headline);
    --font-body: var(--font-family-body);
    --font-size-h1: 64px;
    --font-size-h2: 42px;
    --font-size-h3: 29px;
    --font-size-body: 21px;
    --font-size-caption: 17px;
    --secondary-text: var(--muted-text);
    --panel-border: var(--border);
    --font-weight-normal: 400;
    --font-weight-medium: 500;
    --font-weight-semibold: 600;
    --font-weight-bold: 700;
    --spacing-gutter-pct: 0.07;
    --spacing-top-pct: 0.15;
    --spacing-bottom-pct: 0.07;
    --spacing-title-y-pct: 0.055;
    --accent-1: #93c5fd;
    --accent-2: #60a5fa;
    --accent-3: #818cf8;
    --accent-4: #a78bfa;
    --accent-5: #38bdf8;
    --accent-6: #fb923c;
}
:root[data-theme="dark"] {
    --background: #0f172a;
    --panel: #1e293b;
    --primary-text: #f1f5f9;
    --muted-text: #94a3b8;
    --inverse-text: #0f172a;
    --border: #334155;
    --shadow-color: #000000;
    --icon-pad-bg: #1e293b;
    --art-glow: #7dd3fc;
    --art-glow-opacity: 0.18;
    --art-sheen: #ffffff;
    --art-sheen-opacity: 0.18;
    --art-shadow: #000000;
    --art-shadow-opacity: 0.28;
    --art-muted-line: #64748b;
    --art-panel-tint: #1e293b;
    --semantic-risk: #f87171;
    --semantic-warning: #fb923c;
    --semantic-uncertain: #fbbf24;
    --semantic-evidence: #60a5fa;
    --semantic-claim: #c084fc;
    --semantic-positive: #4ade80;
    --semantic-outcome: #22d3ee;
    --accent-1: #93c5fd;
    --accent-2: #60a5fa;
    --accent-3: #818cf8;
    --accent-4: #a78bfa;
    --accent-5: #38bdf8;
    --accent-6: #fb923c;
}
:root[data-theme="light"] {
    --background: #f8fafc;
    --panel: #ffffff;
    --primary-text: #0f172a;
    --muted-text: #64748b;
    --inverse-text: #ffffff;
    --border: #e2e8f0;
    --shadow-color: #000000;
    --icon-pad-bg: #1e293b;
    --art-glow: #0891b2;
    --art-glow-opacity: 0.10;
    --art-sheen: #ffffff;
    --art-sheen-opacity: 0.34;
    --art-shadow: #0f172a;
    --art-shadow-opacity: 0.14;
    --art-muted-line: #94a3b8;
    --art-panel-tint: #f1f5f9;
    --semantic-risk: #b91c1c;
    --semantic-warning: #c2410c;
    --semantic-uncertain: #a16207;
    --semantic-evidence: #1d4ed8;
    --semantic-claim: #6d28d9;
    --semantic-positive: #15803d;
    --semantic-outcome: #0e7490;
    --accent-1: #1d4ed8;
    --accent-2: #2563eb;
    --accent-3: #4f46e5;
    --accent-4: #6d28d9;
    --accent-5: #0369a1;
    --accent-6: #c2410c;
}</style>
  <rect x="0" y="0" width="1.92E+3" height="1.08E+3" fill="#252a34" stroke="none" id="programmatic_background"/>
  <line id="HEADER_DECOR" x1="960.0" x2="1080.0" y1="125.0" y2="125.0" stroke="var(--accent-1)" stroke-width="6" stroke-linecap="round"/>
  <defs>
    <pattern id="svg07afafb7-napkin-hatch" patternUnits="userSpaceOnUse" width="12" height="12">
      <path d="M -3 12 L 12 -3 M 0 15 L 15 0" fill="none" stroke="var(--primary-text)" stroke-width="1" stroke-opacity="0.05"/>
    </pattern>
    <filter id="svg07afafb7-shadow" x="-30%" y="-30%" width="160%" height="160%">
      <feDropShadow dx="0" dy="3" stdDeviation="6" flood-color="#000000" flood-opacity="0.10"/>
      <feDropShadow dx="0" dy="8" stdDeviation="12" flood-color="#000000" flood-opacity="0.16"/>
    </filter>
    <marker id="svg07afafb7-arrowhead" markerWidth="12" markerHeight="12" refX="10" refY="6" orient="auto">
      <path d="M 0 0 L 12 6 L 0 12 Z" fill="var(--muted-text)"/>
    </marker>
    <radialGradient id="svg07afafb7-universal-edge-vignette" cx="50%" cy="50%" r="72%">
      <stop offset="0%" stop-color="var(--background)" stop-opacity="0"/>
      <stop offset="72%" stop-color="var(--background)" stop-opacity="0.12"/>
      <stop offset="100%" stop-color="var(--primary-text)" stop-opacity="0.08"/>
    </radialGradient>
    <linearGradient id="svg07afafb7-universal-surface-sheen" x1="0%" y1="0%" x2="100%" y2="100%">
      <stop offset="0%" stop-color="var(--art-sheen)" stop-opacity="var(--art-sheen-opacity)"/>
      <stop offset="46%" stop-color="var(--art-sheen)" stop-opacity="0.035"/>
      <stop offset="100%" stop-color="var(--art-panel-tint)" stop-opacity="0.14"/>
    </linearGradient>
    <radialGradient id="svg07afafb7-universal-icon-aura" cx="50%" cy="42%" r="64%">
      <stop offset="0%" stop-color="var(--art-glow)" stop-opacity="var(--art-glow-opacity)"/>
      <stop offset="100%" stop-color="var(--background)" stop-opacity="0"/>
    </radialGradient>
    <filter id="svg07afafb7-text-glow" x="-20%" y="-20%" width="140%" height="140%">
      <feDropShadow dx="0" dy="0" stdDeviation="2" flood-color="#000000" flood-opacity="0.4"/>
    </filter>
  </defs>
  <rect width="100%" height="100%" fill="var(--background)" id="CANVAS_BG"/>
  <rect width="100%" height="100%" fill="url(#svg07afafb7-napkin-hatch)"/>
  <rect id="UNIVERSAL_EDGE_VIGNETTE" width="100%" height="100%" fill="url(#svg07afafb7-universal-edge-vignette)" opacity="0.62"/>
  <text id="TITLE" x="960.0" y="59" text-anchor="middle" font-size="58" font-weight="800" fill="#f1f5f9" style="font-size: 69px; font-family: 'Segoe UI Variable Display', 'Aptos Display', 'Inter', 'Segoe UI', Helvetica, Arial, sans-serif; font-weight: 800; font-kerning: normal; font-feature-settings: &quot;kern&quot; 1, &quot;liga&quot; 1; letter-spacing:-1.2px;" data-final-font-size="69">
    <tspan x="960.0" dy="70.47px">Evaluating Gravity Research Evidence</tspan>
  </text>
  <rect id="TITLE_FRAME" x="134" y="56" width="1652" height="98" fill="none"/>
  <rect x="120" y="165" width="1680" height="820" rx="40" fill="var(--panel)" fill-opacity="0.22" stroke="var(--muted-text)" stroke-width="2.4" opacity="0.92"/>
  <path d="M 272.0 282.0 Q 319.5 282.0 367.0 418.0 Q 414.5 418.0 462.0 554.0 Q 509.5 554.0 557.0 690.0 Q 604.5 690.0 652.0 826.0" fill="none" stroke="var(--muted-text)" stroke-width="10" stroke-linecap="round" stroke-linejoin="round" opacity="0.36" marker-end="url(#svg07afafb7-arrowhead)"/>
  <g id="DIAGRAM_MAIN" transform="translate(-60 -20) scale(1.08)">
    <g filter="url(#svg07afafb7-shadow)">
      <rect id="ITEM_1_BG" x="190.0" y="210.0" width="980" height="144" rx="24" fill="var(--panel)" fill-opacity="0.97" stroke="var(--accent-1)" stroke-width="2.5"/>
      <rect x="190.0" y="210.0" width="980" height="144" rx="16" fill="url(#svg07afafb7-universal-surface-sheen)" opacity="0.86"/>
      <rect x="190.0" y="210.0" width="980" height="18" rx="9" fill="var(--accent-1)" fill-opacity="0.55"/>
      <circle id="ITEM_1_PAD" cx="272.0" cy="282.0" r="40" fill="var(--icon-pad-bg)" opacity="1" fill-opacity="0.9" stroke-width="2" stroke="var(--accent-1)" stroke-opacity="0.72" data-badge-layer="pad"/>
      <circle id="ITEM_1_PAD_INNER" cx="272.0" cy="282.0" r="31.20" fill="var(--accent-1)" fill-opacity="0.12" stroke="none" data-badge-layer="tint"/>
      <circle cx="272.0" cy="282.0" r="32" fill="none" stroke="var(--accent-1)" stroke-width="3" stroke-dasharray="6 4" display="none" data-suppressed-decoration="redundant-badge-ring"/>
      <g id="ITEM_1_ICON" transform="translate(242.0, 252.0)" data-icon-size="60" stroke-linecap="round" stroke-linejoin="round" data-badge-treatment="clean">
        <g transform="translate(-3.844067796610173,-3.844067796610173) scale(2.820338983050848)" vector-effect="non-scaling-stroke" stroke-width="2.43" stroke-linecap="round" stroke-linejoin="round" stroke-opacity="1.0">
          <rect width="14" height="8" x="5" y="2" rx="2" vector-effect="non-scaling-stroke" fill="none" stroke="#f1f5f9"/>
          <rect width="20" height="8" x="2" y="14" rx="2" vector-effect="non-scaling-stroke" fill="none" stroke="#f1f5f9"/>
          <path d="M6 18h2" vector-effect="non-scaling-stroke" fill="none" stroke="#f1f5f9"/>
          <path d="M12 18h6" vector-effect="non-scaling-stroke" fill="none" stroke="#f1f5f9"/>
        </g>
      </g>
      <rect x="345.0" y="238.0" width="690.0" height="24" rx="12" fill="var(--accent-1)" fill-opacity="0.08"/>
      <text x="1136.0" y="252.0" text-anchor="end" font-size="17" font-weight="800" fill="var(--accent-1)" opacity="0.72">01</text>
      <text id="ITEM_1_HEAD" x="358.0" y="228.0" text-anchor="start" font-weight="800" font-size="30" fill="var(--accent-1)" data-bg-id="ITEM_1_BG" fill-opacity="1.0" stroke="none" style="font-size: 31px; font-family: 'Segoe UI Variable Display', 'Aptos Display', 'Inter', 'Segoe UI', Helvetica, Arial, sans-serif; font-weight: 700; font-kerning: normal; font-feature-settings: &quot;kern&quot; 1, &quot;liga&quot; 1; letter-spacing:-0.4px;" data-final-font-size="31">
        <tspan x="358.0" dy="28.58px">Theoretical Modeling</tspan>
      </text>
      <rect id="ITEM_1_HEAD_FRAME" x="358.0" y="228.0" width="620.0" height="34" fill="none"/>
      <text id="ITEM_1_BODY" x="358.0" y="270.0" text-anchor="start" font-size="23" fill="var(--primary-text)" data-bg-id="ITEM_1_BG" style="font-size: 23px; font-family: 'Segoe UI Variable Text', 'Aptos', 'Inter', 'Segoe UI', Helvetica, Arial, sans-serif; font-weight: 400; font-kerning: normal; font-feature-settings: &quot;kern&quot; 1, &quot;liga&quot; 1;" data-final-font-size="23">
        <tspan x="358.0" dy="22.92px">Researchers examine if physics allows practical</tspan>
        <tspan x="358.0" dy="26.45px">gravity manipulation</tspan>
      </text>
      <rect id="ITEM_1_BODY_FRAME" x="358.0" y="270.0" width="650.0" height="64.0" fill="none"/>
    </g>
    <g filter="url(#svg07afafb7-shadow)">
      <rect id="ITEM_2_BG" x="285.0" y="346.0" width="980" height="144" rx="24" fill="var(--panel)" fill-opacity="0.97" stroke="var(--accent-2)" stroke-width="2.5"/>
      <rect x="285.0" y="346.0" width="980" height="144" rx="16" fill="url(#svg07afafb7-universal-surface-sheen)" opacity="0.86"/>
      <rect x="285.0" y="346.0" width="980" height="18" rx="9" fill="var(--accent-2)" fill-opacity="0.55"/>
      <circle id="ITEM_2_PAD" cx="367.0" cy="418.0" r="40" fill="var(--icon-pad-bg)" opacity="1" fill-opacity="0.9" stroke-width="2" stroke="var(--accent-2)" stroke-opacity="0.72" data-badge-layer="pad"/>
      <circle id="ITEM_2_PAD_INNER" cx="367.0" cy="418.0" r="31.20" fill="var(--accent-2)" fill-opacity="0.12" stroke="none" data-badge-layer="tint"/>
      <circle cx="367.0" cy="418.0" r="32" fill="none" stroke="var(--accent-2)" stroke-width="3" stroke-dasharray="6 4" display="none" data-suppressed-decoration="redundant-badge-ring"/>
      <g id="ITEM_2_ICON" transform="translate(337.0, 388.0)" data-icon-size="60" stroke-linecap="round" stroke-linejoin="round" data-badge-treatment="clean">
        <g transform="translate(-8.069724770642205,-5.779816513761471) scale(2.289908256880734)">
          <path d="M12.3136 12.7574L20.4999 11L25.7487 13.4646L11.6065 27.6067C9.6539 29.5593 6.48807 29.5593 4.53545 27.6067C2.58283 25.6541 2.58283 22.4882 4.53545 20.5356L5.59212 19.479L6.64879 19.5664V18.4223L9.84605 15.225L10.8949 15.1953V14.1762L12.3136 12.7574Z" fill="#C3EF3C"/>
          <path d="M21.8596 2.50428C21.2738 1.91849 20.3241 1.91849 19.7383 2.50428C19.1525 3.09007 19.1525 4.03982 19.7383 4.6256L20.0918 4.97916L15.1174 9.95364L15.5 11L14.1038 10.9672L12.3136 12.7574L25.7486 13.4645L27.1629 12.0502L27.5165 12.4038C28.1023 12.9896 29.052 12.9896 29.6378 12.4038C30.2236 11.818 30.2236 10.8682 29.6378 10.2825L21.8596 2.50428Z" fill="#AEDDFF"/>
          <path d="M15.1421 9.92896L17.4402 12.2271C17.7331 12.5199 17.7331 12.9948 17.4402 13.2877C17.1473 13.5806 16.6724 13.5806 16.3795 13.2877L14.0814 10.9896L15.1421 9.92896Z" fill="#008463"/>
          <path d="M10.8994 14.1716L13.1975 16.4697C13.4904 16.7626 13.4904 17.2375 13.1975 17.5304C12.9046 17.8233 12.4297 17.8233 12.1368 17.5304L9.83875 15.2323L10.8994 14.1716Z" fill="#008463"/>
          <path d="M8.95495 20.7123L6.65685 18.4142L5.59619 19.4748L7.89429 21.7729C8.18718 22.0658 8.66206 22.0658 8.95495 21.7729C9.24784 21.48 9.24784 21.0052 8.95495 20.7123Z" fill="#008463"/>
        </g>
      </g>
      <rect x="440.0" y="374.0" width="690.0" height="24" rx="12" fill="var(--accent-2)" fill-opacity="0.08"/>
      <text x="1231.0" y="388.0" text-anchor="end" font-size="17" font-weight="800" fill="var(--accent-2)" opacity="0.72">02</text>
      <text id="ITEM_2_HEAD" x="453.0" y="364.0" text-anchor="start" font-weight="800" font-size="30" fill="var(--accent-2)" data-bg-id="ITEM_2_BG" fill-opacity="1.0" stroke="none" style="font-size: 31px; font-family: 'Segoe UI Variable Display', 'Aptos Display', 'Inter', 'Segoe UI', Helvetica, Arial, sans-serif; font-weight: 700; font-kerning: normal; font-feature-settings: &quot;kern&quot; 1, &quot;liga&quot; 1; letter-spacing:-0.4px;" data-final-font-size="31">
        <tspan x="453.0" dy="28.58px">Laboratory Proposals</tspan>
      </text>
      <rect id="ITEM_2_HEAD_FRAME" x="453.0" y="364.0" width="620.0" height="34" fill="none"/>
      <text id="ITEM_2_BODY" x="453.0" y="406.0" text-anchor="start" font-size="23" fill="var(--primary-text)" data-bg-id="ITEM_2_BG" style="font-size: 23px; font-family: 'Segoe UI Variable Text', 'Aptos', 'Inter', 'Segoe UI', Helvetica, Arial, sans-serif; font-weight: 400; font-kerning: normal; font-feature-settings: &quot;kern&quot; 1, &quot;liga&quot; 1;" data-final-font-size="23">
        <tspan x="453.0" dy="28.21px">Drafting experimental designs to test mathematical models</tspan>
      </text>
      <rect id="ITEM_2_BODY_FRAME" x="453.0" y="406.0" width="650.0" height="64.0" fill="none"/>
    </g>
    <g filter="url(#svg07afafb7-shadow)">
      <rect id="ITEM_3_BG" x="380.0" y="482.0" width="980" height="144" rx="24" fill="var(--panel)" fill-opacity="0.97" stroke="var(--accent-3)" stroke-width="2.5"/>
      <rect x="380.0" y="482.0" width="980" height="144" rx="16" fill="url(#svg07afafb7-universal-surface-sheen)" opacity="0.86"/>
      <rect x="380.0" y="482.0" width="980" height="18" rx="9" fill="var(--accent-3)" fill-opacity="0.55"/>
      <circle id="ITEM_3_PAD" cx="462.0" cy="554.0" r="40" fill="var(--icon-pad-bg)" opacity="1" fill-opacity="0.9" stroke-width="2" stroke="var(--accent-3)" stroke-opacity="0.72" data-badge-layer="pad"/>
      <circle id="ITEM_3_PAD_INNER" cx="462.0" cy="554.0" r="31.20" fill="var(--accent-3)" fill-opacity="0.12" stroke="none" data-badge-layer="tint"/>
      <circle cx="462.0" cy="554.0" r="32" fill="none" stroke="var(--accent-3)" stroke-width="3" stroke-dasharray="6 4" display="none" data-suppressed-decoration="redundant-badge-ring"/>
      <g id="ITEM_3_ICON" transform="translate(432.0, 524.0)" data-icon-size="60" stroke-linecap="round" stroke-linejoin="round" data-badge-treatment="clean">
        <g transform="translate(-1.2000000000000028,-1.2000000000000002) scale(4.457142857142857)" vector-effect="non-scaling-stroke" stroke-width="2.43" stroke-linecap="round" stroke-linejoin="round" stroke-opacity="1.0">
          <path id="Vector" fill="none" d="M1.5 5h11v7c0 0.2652 -0.1054 0.5196 -0.2929 0.7071S11.7652 13 11.5 13h-9c-0.26522 0 -0.51957 -0.1054 -0.70711 -0.2929C1.60536 12.5196 1.5 12.2652 1.5 12V5Z" vector-effect="non-scaling-stroke" stroke="#f1f5f9"/>
          <path id="Vector_2" fill="none" d="M13.5 4V2c0 -0.55228 -0.4477 -1 -1 -1l-11 0c-0.552285 0 -1 0.44772 -1 1v2c0 0.55228 0.447715 1 1 1l11 0c0.5523 0 1 -0.44772 1 -1Z" vector-effect="non-scaling-stroke" stroke="#f1f5f9"/>
          <path id="Vector_3" stroke="#f1f5f9" d="M1.5 5h11v7c0 0.2652 -0.1054 0.5196 -0.2929 0.7071S11.7652 13 11.5 13h-9c-0.26522 0 -0.51957 -0.1054 -0.70711 -0.2929C1.60536 12.5196 1.5 12.2652 1.5 12V5v0Z" vector-effect="non-scaling-stroke" fill="none"/>
          <path id="Vector_4" stroke="#f1f5f9" d="M13.5 4V2c0 -0.55228 -0.4477 -1 -1 -1l-11 0c-0.552285 0 -1 0.44772 -1 1v2c0 0.55228 0.447715 1 1 1l11 0c0.5523 0 1 -0.44772 1 -1Z" vector-effect="non-scaling-stroke" fill="none"/>
          <path id="Vector_5" stroke="#f1f5f9" d="M5.5 8h3" vector-effect="non-scaling-stroke" fill="none"/>
        </g>
      </g>
      <rect x="535.0" y="510.0" width="690.0" height="24" rx="12" fill="var(--accent-3)" fill-opacity="0.08"/>
      <text x="1326.0" y="524.0" text-anchor="end" font-size="17" font-weight="800" fill="var(--accent-3)" opacity="0.72">03</text>
      <text id="ITEM_3_HEAD" x="548.0" y="500.0" text-anchor="start" font-weight="800" font-size="30" fill="var(--accent-3)" data-bg-id="ITEM_3_BG" fill-opacity="1.0" stroke="none" style="font-size: 31px; font-family: 'Segoe UI Variable Display', 'Aptos Display', 'Inter', 'Segoe UI', Helvetica, Arial, sans-serif; font-weight: 700; font-kerning: normal; font-feature-settings: &quot;kern&quot; 1, &quot;liga&quot; 1; letter-spacing:-0.4px;" data-final-font-size="31">
        <tspan x="548.0" dy="28.58px">Assessment Review</tspan>
      </text>
      <rect id="ITEM_3_HEAD_FRAME" x="548.0" y="500.0" width="620.0" height="34" fill="none"/>
      <text id="ITEM_3_BODY" x="548.0" y="542.0" text-anchor="start" font-size="23" fill="var(--primary-text)" data-bg-id="ITEM_3_BG" style="font-size: 23px; font-family: 'Segoe UI Variable Text', 'Aptos', 'Inter', 'Segoe UI', Helvetica, Arial, sans-serif; font-weight: 400; font-kerning: normal; font-feature-settings: &quot;kern&quot; 1, &quot;liga&quot; 1;" data-final-font-size="23">
        <tspan x="548.0" dy="22.92px">Published findings conclude no experimentally verified</tspan>
        <tspan x="548.0" dy="26.45px">methods exist</tspan>
      </text>
      <rect id="ITEM_3_BODY_FRAME" x="548.0" y="542.0" width="650.0" height="64.0" fill="none"/>
    </g>
    <g filter="url(#svg07afafb7-shadow)">
      <rect id="ITEM_4_BG" x="475.0" y="618.0" width="980" height="144" rx="24" fill="var(--panel)" fill-opacity="0.97" stroke="var(--accent-4)" stroke-width="2.5"/>
      <rect x="475.0" y="618.0" width="980" height="144" rx="16" fill="url(#svg07afafb7-universal-surface-sheen)" opacity="0.86"/>
      <rect x="475.0" y="618.0" width="980" height="18" rx="9" fill="var(--accent-4)" fill-opacity="0.55"/>
      <circle id="ITEM_4_PAD" cx="557.0" cy="690.0" r="40" fill="var(--icon-pad-bg)" opacity="1" fill-opacity="0.9" stroke-width="2" stroke="var(--accent-1)" stroke-opacity="0.72" data-badge-layer="pad"/>
      <circle id="ITEM_4_PAD_INNER" cx="557.0" cy="690.0" r="31.20" fill="var(--accent-1)" fill-opacity="0.12" stroke="none" data-badge-layer="tint"/>
      <circle cx="557.0" cy="690.0" r="32" fill="none" stroke="var(--accent-4)" stroke-width="3" stroke-dasharray="6 4" display="none" data-suppressed-decoration="redundant-badge-ring"/>
      <g id="ITEM_4_ICON" transform="translate(527.0, 660.0)" data-icon-size="60" stroke-linecap="round" stroke-linejoin="round" data-badge-treatment="clean">
        <g transform="translate(-1.2000000000000028,-1.2000000000000028) scale(4.457142857142857)" vector-effect="non-scaling-stroke" stroke-width="2.43" stroke-linecap="round" stroke-linejoin="round" stroke-opacity="1.0">
          <path id="Vector" fill="none" d="M6 11.5a5.5 5.5 0 1 0 0 -11 5.5 5.5 0 0 0 0 11Z" vector-effect="non-scaling-stroke" stroke="#f1f5f9"/>
          <path id="Vector_2" stroke="#f1f5f9" d="M6 11.5a5.5 5.5 0 1 0 0 -11 5.5 5.5 0 0 0 0 11Z" vector-effect="non-scaling-stroke" fill="none"/>
          <path id="Vector_3" stroke="#f1f5f9" d="M13.5 13.5 10 10" vector-effect="non-scaling-stroke" fill="none"/>
        </g>
      </g>
      <rect x="630.0" y="646.0" width="690.0" height="24" rx="12" fill="var(--accent-4)" fill-opacity="0.08"/>
      <text x="1421.0" y="660.0" text-anchor="end" font-size="17" font-weight="800" fill="var(--accent-4)" opacity="0.72">04</text>
      <text id="ITEM_4_HEAD" x="643.0" y="636.0" text-anchor="start" font-weight="800" font-size="30" fill="var(--accent-1)" data-bg-id="ITEM_4_BG" fill-opacity="1.0" stroke="none" style="font-size: 31px; font-family: 'Segoe UI Variable Display', 'Aptos Display', 'Inter', 'Segoe UI', Helvetica, Arial, sans-serif; font-weight: 700; font-kerning: normal; font-feature-settings: &quot;kern&quot; 1, &quot;liga&quot; 1; letter-spacing:-0.4px;" data-final-font-size="31">
        <tspan x="643.0" dy="28.58px">Verification Requirement</tspan>
      </text>
      <rect id="ITEM_4_HEAD_FRAME" x="643.0" y="636.0" width="620.0" height="34" fill="none"/>
      <text id="ITEM_4_BODY" x="643.0" y="678.0" text-anchor="start" font-size="23" fill="var(--primary-text)" data-bg-id="ITEM_4_BG" style="font-size: 23px; font-family: 'Segoe UI Variable Text', 'Aptos', 'Inter', 'Segoe UI', Helvetica, Arial, sans-serif; font-weight: 400; font-kerning: normal; font-feature-settings: &quot;kern&quot; 1, &quot;liga&quot; 1;" data-final-font-size="23">
        <tspan x="643.0" dy="22.92px">Demanding exceptionally strong experimental evidence</tspan>
        <tspan x="643.0" dy="26.45px">for extraordinary claims</tspan>
      </text>
      <rect id="ITEM_4_BODY_FRAME" x="643.0" y="678.0" width="650.0" height="64.0" fill="none"/>
    </g>
    <g filter="url(#svg07afafb7-shadow)">
      <rect id="ITEM_5_BG" x="570.0" y="754.0" width="980" height="144" rx="24" fill="var(--panel)" fill-opacity="0.97" stroke="var(--accent-5)" stroke-width="2.5"/>
      <rect x="570.0" y="754.0" width="980" height="144" rx="16" fill="url(#svg07afafb7-universal-surface-sheen)" opacity="0.86"/>
      <rect x="570.0" y="754.0" width="980" height="18" rx="9" fill="var(--accent-5)" fill-opacity="0.55"/>
      <circle id="ITEM_5_PAD" cx="652.0" cy="826.0" r="40" fill="var(--icon-pad-bg)" opacity="1" fill-opacity="0.9" stroke-width="2" stroke="var(--semantic-outcome)" stroke-opacity="0.72" data-badge-layer="pad"/>
      <circle id="ITEM_5_PAD_INNER" cx="652.0" cy="826.0" r="31.20" fill="var(--semantic-outcome)" fill-opacity="0.12" stroke="none" data-badge-layer="tint"/>
      <circle cx="652.0" cy="826.0" r="32" fill="none" stroke="var(--accent-5)" stroke-width="3" stroke-dasharray="6 4" display="none" data-suppressed-decoration="redundant-badge-ring"/>
      <g id="ITEM_5_ICON" transform="translate(622.0, 796.0)" data-icon-size="60" stroke-linecap="round" stroke-linejoin="round" data-badge-treatment="clean">
        <g transform="translate(-3.844067796610173,-3.844067796610173) scale(2.820338983050848)" vector-effect="non-scaling-stroke" stroke-width="2.43" stroke-linecap="round" stroke-linejoin="round" stroke-opacity="1.0">
          <path d="m14 13-8.381 8.38a1 1 0 0 1-3.001-3l8.384-8.381" vector-effect="non-scaling-stroke" fill="none" stroke="#f1f5f9"/>
          <path d="m16 16 6-6" vector-effect="non-scaling-stroke" fill="none" stroke="#f1f5f9"/>
          <path d="m21.5 10.5-8-8" vector-effect="non-scaling-stroke" fill="none" stroke="#f1f5f9"/>
          <path d="m8 8 6-6" vector-effect="non-scaling-stroke" fill="none" stroke="#f1f5f9"/>
          <path d="m8.5 7.5 8 8" vector-effect="non-scaling-stroke" fill="none" stroke="#f1f5f9"/>
        </g>
      </g>
      <rect x="725.0" y="782.0" width="690.0" height="24" rx="12" fill="var(--accent-5)" fill-opacity="0.08"/>
      <text x="1516.0" y="796.0" text-anchor="end" font-size="17" font-weight="800" fill="var(--accent-5)" opacity="0.72">05</text>
      <text id="ITEM_5_HEAD" x="738.0" y="772.0" text-anchor="start" font-weight="800" font-size="30" fill="var(--semantic-outcome)" data-bg-id="ITEM_5_BG" fill-opacity="1.0" stroke="none" style="font-size: 31px; font-family: 'Segoe UI Variable Display', 'Aptos Display', 'Inter', 'Segoe UI', Helvetica, Arial, sans-serif; font-weight: 700; font-kerning: normal; font-feature-settings: &quot;kern&quot; 1, &quot;liga&quot; 1; letter-spacing:-0.4px;" data-final-font-size="31">
        <tspan x="738.0" dy="28.58px">Final Conclusion</tspan>
      </text>
      <rect id="ITEM_5_HEAD_FRAME" x="738.0" y="772.0" width="620.0" height="34" fill="none"/>
      <text id="ITEM_5_BODY" x="738.0" y="814.0" text-anchor="start" font-size="23" fill="var(--primary-text)" data-bg-id="ITEM_5_BG" style="font-size: 23px; font-family: 'Segoe UI Variable Text', 'Aptos', 'Inter', 'Segoe UI', Helvetica, Arial, sans-serif; font-weight: 400; font-kerning: normal; font-feature-settings: &quot;kern&quot; 1, &quot;liga&quot; 1;" data-final-font-size="23">
        <tspan x="738.0" dy="22.92px">Distinguishing speculative research from operational</tspan>
        <tspan x="738.0" dy="26.45px">hardware possession</tspan>
      </text>
      <rect id="ITEM_5_BODY_FRAME" x="738.0" y="814.0" width="650.0" height="64.0" fill="none"/>
    </g>
  </g>
  <text id="SOURCE_NOTE" x="134.0" y="1058.0" fill="var(--muted-text)" opacity="1" style="font-family: var(--font-family); font-size: 20px;">Source: Technical Reports Server Responding to Mechanical Antigravity</text>
</svg>
